<svg width="50" height="51" viewBox="0 0 50 51" fill="none" xmlns="http://www.w3.org/2000/svg">
<rect y="0.5" width="50" height="50" rx="25" fill="#230B34"/>
<path d="M29.8111 32.24C30.1311 32.24 30.3831 32.332 30.5671 32.516C30.7591 32.692 30.8551 32.928 30.8551 33.224V35H18.9511V34.016C18.9511 33.816 18.9911 33.608 19.0711 33.392C19.1591 33.168 19.2951 32.968 19.4791 32.792L24.7471 27.512C25.1871 27.064 25.5791 26.636 25.9231 26.228C26.2751 25.82 26.5671 25.416 26.7991 25.016C27.0311 24.616 27.2071 24.212 27.3271 23.804C27.4551 23.388 27.5191 22.952 27.5191 22.496C27.5191 22.08 27.4591 21.716 27.3391 21.404C27.2191 21.084 27.0471 20.816 26.8231 20.6C26.6071 20.384 26.3431 20.224 26.0311 20.12C25.7271 20.008 25.3831 19.952 24.9991 19.952C24.6471 19.952 24.3191 20.004 24.0151 20.108C23.7191 20.204 23.4551 20.344 23.2231 20.528C22.9911 20.704 22.7951 20.912 22.6351 21.152C22.4751 21.392 22.3551 21.656 22.2751 21.944C22.1391 22.312 21.9631 22.556 21.7471 22.676C21.5311 22.796 21.2191 22.824 20.8111 22.76L19.2511 22.484C19.3711 21.652 19.6031 20.924 19.9471 20.3C20.2911 19.668 20.7191 19.144 21.2311 18.728C21.7511 18.304 22.3431 17.988 23.0071 17.78C23.6791 17.564 24.3991 17.456 25.1671 17.456C25.9671 17.456 26.6991 17.576 27.3631 17.816C28.0271 18.048 28.5951 18.38 29.0671 18.812C29.5391 19.244 29.9071 19.764 30.1711 20.372C30.4351 20.98 30.5671 21.656 30.5671 22.4C30.5671 23.04 30.4711 23.632 30.2791 24.176C30.0951 24.72 29.8431 25.24 29.5231 25.736C29.2111 26.232 28.8431 26.712 28.4191 27.176C27.9951 27.64 27.5511 28.112 27.0871 28.592L23.1751 32.588C23.5511 32.476 23.9231 32.392 24.2911 32.336C24.6671 32.272 25.0231 32.24 25.3591 32.24H29.8111Z" fill="#F8F8FA"/>
</svg>
