<svg width="50" height="51" viewBox="0 0 50 51" fill="none" xmlns="http://www.w3.org/2000/svg">
<rect y="0.5" width="50" height="50" rx="25" fill="#230B34"/>
<path d="M19.3351 22.484C19.4551 21.652 19.6871 20.924 20.0311 20.3C20.3751 19.668 20.8031 19.144 21.3151 18.728C21.8351 18.304 22.4271 17.988 23.0911 17.78C23.7631 17.564 24.4831 17.456 25.2511 17.456C26.0511 17.456 26.7711 17.572 27.4111 17.804C28.0591 18.028 28.6111 18.344 29.0671 18.752C29.5231 19.152 29.8711 19.624 30.1111 20.168C30.3591 20.712 30.4831 21.3 30.4831 21.932C30.4831 22.484 30.4191 22.972 30.2911 23.396C30.1711 23.812 29.9951 24.176 29.7631 24.488C29.5311 24.8 29.2431 25.064 28.8991 25.28C28.5551 25.496 28.1671 25.676 27.7351 25.82C28.7751 26.148 29.5511 26.648 30.0631 27.32C30.5751 27.992 30.8311 28.836 30.8311 29.852C30.8311 30.716 30.6711 31.48 30.3511 32.144C30.0311 32.808 29.5991 33.368 29.0551 33.824C28.5111 34.272 27.8791 34.612 27.1591 34.844C26.4471 35.076 25.6911 35.192 24.8911 35.192C24.0191 35.192 23.2591 35.092 22.6111 34.892C21.9631 34.692 21.3991 34.396 20.9191 34.004C20.4391 33.612 20.0311 33.132 19.6951 32.564C19.3591 31.996 19.0711 31.34 18.8311 30.596L20.1391 30.056C20.4831 29.912 20.8031 29.876 21.0991 29.948C21.4031 30.012 21.6231 30.172 21.7591 30.428C21.9031 30.708 22.0591 30.984 22.2271 31.256C22.4031 31.528 22.6111 31.772 22.8511 31.988C23.0911 32.196 23.3711 32.368 23.6911 32.504C24.0191 32.632 24.4071 32.696 24.8551 32.696C25.3591 32.696 25.7991 32.616 26.1751 32.456C26.5511 32.288 26.8631 32.072 27.1111 31.808C27.3671 31.544 27.5551 31.252 27.6751 30.932C27.8031 30.604 27.8671 30.276 27.8671 29.948C27.8671 29.532 27.8231 29.156 27.7351 28.82C27.6471 28.476 27.4631 28.184 27.1831 27.944C26.9031 27.704 26.4991 27.516 25.9711 27.38C25.4511 27.244 24.7511 27.176 23.8711 27.176V25.064C24.5991 25.056 25.2031 24.988 25.6831 24.86C26.1631 24.732 26.5431 24.556 26.8231 24.332C27.1111 24.1 27.3111 23.824 27.4231 23.504C27.5351 23.184 27.5911 22.832 27.5911 22.448C27.5911 21.632 27.3631 21.012 26.9071 20.588C26.4511 20.164 25.8431 19.952 25.0831 19.952C24.7311 19.952 24.4071 20.004 24.1111 20.108C23.8151 20.204 23.5471 20.344 23.3071 20.528C23.0751 20.704 22.8791 20.912 22.7191 21.152C22.5591 21.392 22.4391 21.656 22.3591 21.944C22.2231 22.312 22.0431 22.556 21.8191 22.676C21.6031 22.796 21.2951 22.824 20.8951 22.76L19.3351 22.484Z" fill="#F8F8FA"/>
</svg>
