<svg width="74" height="23" viewBox="0 0 74 23" fill="none" xmlns="http://www.w3.org/2000/svg">
<path d="M9.752 3.084C9.68 3.22 9.576 3.288 9.44 3.288C9.336 3.288 9.2 3.216 9.032 3.072C8.872 2.92 8.652 2.756 8.372 2.58C8.092 2.396 7.74 2.228 7.316 2.076C6.9 1.924 6.384 1.848 5.768 1.848C5.152 1.848 4.608 1.936 4.136 2.112C3.672 2.288 3.28 2.528 2.96 2.832C2.648 3.136 2.408 3.488 2.24 3.888C2.08 4.288 2 4.708 2 5.148C2 5.724 2.12 6.2 2.36 6.576C2.608 6.952 2.932 7.272 3.332 7.536C3.732 7.8 4.184 8.024 4.688 8.208C5.2 8.384 5.724 8.56 6.26 8.736C6.796 8.912 7.316 9.108 7.82 9.324C8.332 9.532 8.788 9.796 9.188 10.116C9.588 10.436 9.908 10.832 10.148 11.304C10.396 11.768 10.52 12.348 10.52 13.044C10.52 13.756 10.396 14.428 10.148 15.06C9.908 15.684 9.556 16.228 9.092 16.692C8.628 17.156 8.06 17.524 7.388 17.796C6.716 18.06 5.948 18.192 5.084 18.192C3.964 18.192 3 17.996 2.192 17.604C1.384 17.204 0.676 16.66 0.068 15.972L0.404 15.444C0.5 15.324 0.612 15.264 0.74 15.264C0.812 15.264 0.904 15.312 1.016 15.408C1.128 15.504 1.264 15.624 1.424 15.768C1.584 15.904 1.776 16.056 2 16.224C2.224 16.384 2.484 16.536 2.78 16.68C3.076 16.816 3.416 16.932 3.8 17.028C4.184 17.124 4.62 17.172 5.108 17.172C5.78 17.172 6.38 17.072 6.908 16.872C7.436 16.664 7.88 16.384 8.24 16.032C8.608 15.68 8.888 15.264 9.08 14.784C9.272 14.296 9.368 13.776 9.368 13.224C9.368 12.624 9.244 12.132 8.996 11.748C8.756 11.356 8.436 11.032 8.036 10.776C7.636 10.512 7.18 10.292 6.668 10.116C6.164 9.94 5.644 9.768 5.108 9.6C4.572 9.432 4.048 9.244 3.536 9.036C3.032 8.828 2.58 8.564 2.18 8.244C1.78 7.916 1.456 7.512 1.208 7.032C0.968 6.544 0.848 5.936 0.848 5.208C0.848 4.64 0.956 4.092 1.172 3.564C1.388 3.036 1.704 2.572 2.12 2.172C2.536 1.764 3.048 1.44 3.656 1.2C4.272 0.951999 4.972 0.827999 5.756 0.827999C6.636 0.827999 7.424 0.967999 8.12 1.248C8.824 1.528 9.464 1.956 10.04 2.532L9.752 3.084ZM14.7059 8.076C15.2579 7.404 15.8859 6.868 16.5899 6.468C17.3019 6.068 18.0979 5.868 18.9779 5.868C19.6339 5.868 20.2099 5.972 20.7059 6.18C21.2099 6.388 21.6259 6.688 21.9539 7.08C22.2819 7.472 22.5299 7.944 22.6979 8.496C22.8659 9.048 22.9499 9.672 22.9499 10.368V18H21.7979V10.368C21.7979 9.248 21.5419 8.372 21.0299 7.74C20.5179 7.1 19.7379 6.78 18.6899 6.78C17.9139 6.78 17.1859 6.98 16.5059 7.38C15.8339 7.772 15.2339 8.32 14.7059 9.024V18H13.5539V0.539999H14.7059V8.076ZM28.0213 6.06V18H26.8813V6.06H28.0213ZM28.5133 1.944C28.5133 2.088 28.4813 2.224 28.4173 2.352C28.3613 2.472 28.2853 2.58 28.1893 2.676C28.0933 2.772 27.9813 2.848 27.8533 2.904C27.7253 2.96 27.5893 2.988 27.4453 2.988C27.3013 2.988 27.1653 2.96 27.0373 2.904C26.9093 2.848 26.7973 2.772 26.7013 2.676C26.6053 2.58 26.5293 2.472 26.4733 2.352C26.4173 2.224 26.3893 2.088 26.3893 1.944C26.3893 1.8 26.4173 1.664 26.4733 1.536C26.5293 1.4 26.6053 1.284 26.7013 1.188C26.7973 1.092 26.9093 1.016 27.0373 0.959999C27.1653 0.903999 27.3013 0.875999 27.4453 0.875999C27.5893 0.875999 27.7253 0.903999 27.8533 0.959999C27.9813 1.016 28.0933 1.092 28.1893 1.188C28.2853 1.284 28.3613 1.4 28.4173 1.536C28.4813 1.664 28.5133 1.8 28.5133 1.944ZM33.245 15.396C33.477 15.74 33.717 16.032 33.965 16.272C34.221 16.504 34.489 16.696 34.769 16.848C35.049 16.992 35.345 17.096 35.657 17.16C35.977 17.224 36.313 17.256 36.665 17.256C37.369 17.256 37.985 17.128 38.513 16.872C39.041 16.616 39.481 16.256 39.833 15.792C40.193 15.32 40.461 14.76 40.637 14.112C40.821 13.456 40.913 12.736 40.913 11.952C40.913 10.176 40.585 8.872 39.929 8.04C39.273 7.2 38.333 6.78 37.109 6.78C36.317 6.78 35.601 6.984 34.961 7.392C34.321 7.8 33.749 8.368 33.245 9.096V15.396ZM33.197 8.208C33.725 7.488 34.341 6.916 35.045 6.492C35.757 6.068 36.553 5.856 37.433 5.856C38.897 5.856 40.037 6.364 40.853 7.38C41.677 8.396 42.089 9.92 42.089 11.952C42.089 12.824 41.973 13.64 41.741 14.4C41.517 15.152 41.181 15.808 40.733 16.368C40.293 16.92 39.749 17.356 39.101 17.676C38.461 17.996 37.721 18.156 36.881 18.156C36.073 18.156 35.373 18.008 34.781 17.712C34.189 17.416 33.677 16.98 33.245 16.404V22.224H32.093V6.06H32.729C32.929 6.06 33.045 6.16 33.077 6.36L33.197 8.208Z" fill="#2C2D5B"/>
<path d="M52.3192 15.12C52.9032 15.12 53.4272 15.024 53.8912 14.832C54.3552 14.632 54.7472 14.352 55.0672 13.992C55.3872 13.632 55.6312 13.196 55.7992 12.684C55.9672 12.172 56.0512 11.596 56.0512 10.956V0.587999H59.6512V10.956C59.6512 12.012 59.4792 12.984 59.1352 13.872C58.7992 14.752 58.3152 15.512 57.6832 16.152C57.0512 16.792 56.2832 17.292 55.3792 17.652C54.4752 18.012 53.4552 18.192 52.3192 18.192C51.1832 18.192 50.1592 18.012 49.2472 17.652C48.3432 17.292 47.5752 16.792 46.9432 16.152C46.3112 15.512 45.8232 14.752 45.4792 13.872C45.1432 12.984 44.9752 12.012 44.9752 10.956V0.587999H48.5752V10.956C48.5752 11.596 48.6592 12.172 48.8272 12.684C48.9952 13.196 49.2392 13.632 49.5592 13.992C49.8792 14.352 50.2712 14.632 50.7352 14.832C51.1992 15.024 51.7272 15.12 52.3192 15.12ZM65.5316 14.736C65.8436 15.096 66.1796 15.348 66.5396 15.492C66.9076 15.636 67.2996 15.708 67.7156 15.708C68.1156 15.708 68.4796 15.632 68.8076 15.48C69.1356 15.328 69.4156 15.092 69.6476 14.772C69.8876 14.444 70.0716 14.028 70.1996 13.524C70.3276 13.02 70.3916 12.42 70.3916 11.724C70.3916 11.036 70.3356 10.452 70.2236 9.972C70.1196 9.492 69.9676 9.104 69.7676 8.808C69.5756 8.512 69.3396 8.3 69.0596 8.172C68.7796 8.036 68.4676 7.968 68.1236 7.968C67.5396 7.968 67.0476 8.084 66.6476 8.316C66.2556 8.54 65.8836 8.872 65.5316 9.312V14.736ZM65.3396 7.248C65.5876 6.976 65.8516 6.728 66.1316 6.504C66.4116 6.272 66.7116 6.076 67.0316 5.916C67.3516 5.748 67.6956 5.62 68.0636 5.532C68.4316 5.436 68.8316 5.388 69.2636 5.388C69.9276 5.388 70.5356 5.532 71.0876 5.82C71.6476 6.1 72.1276 6.512 72.5276 7.056C72.9276 7.592 73.2396 8.252 73.4636 9.036C73.6876 9.82 73.7996 10.716 73.7996 11.724C73.7996 12.652 73.6716 13.512 73.4156 14.304C73.1676 15.088 72.8116 15.768 72.3476 16.344C71.8836 16.92 71.3236 17.372 70.6676 17.7C70.0196 18.02 69.2956 18.18 68.4956 18.18C67.8236 18.18 67.2516 18.08 66.7796 17.88C66.3156 17.68 65.8996 17.408 65.5316 17.064V21.996H62.2196V5.628H64.2596C64.6756 5.628 64.9516 5.82 65.0876 6.204L65.3396 7.248Z" fill="#F67366"/>
</svg>
